<?xml version="1.0" encoding="UTF-8"?>
<!DOCTYPE svg PUBLIC "-//W3C//DTD SVG 1.1//EN" "http://www.w3.org/Graphics/SVG/1.1/DTD/svg11.dtd">
<!-- Creator: CorelDRAW 2020 (64-Bit) -->
<svg xmlns="http://www.w3.org/2000/svg" xml:space="preserve" width="120.694mm" height="152.154mm" version="1.1" style="shape-rendering:geometricPrecision; text-rendering:geometricPrecision; image-rendering:optimizeQuality; fill-rule:evenodd; clip-rule:evenodd"
viewBox="0 0 3338.51 4208.74"
 xmlns:xlink="http://www.w3.org/1999/xlink"
 xmlns:xodm="http://www.corel.com/coreldraw/odm/2003">
 <defs>
  <style type="text/css">
   <![CDATA[
    .fil2 {fill:none}
    .fil0 {fill:none}
    .fil1 {fill:#FEFEFE;fill-rule:nonzero;fill-opacity:0.101961}
   ]]>
  </style>
   <clipPath id="id0">
    <path d="M3338.51 0l0 289c-199.71,126.52 -379.17,243.09 -459.38,291.9 -431.79,262.72 -819.16,465.15 -1297.78,680.1 -716.37,321.76 -955.52,270.46 -946.83,1020.8 5.76,498.7 -164.44,1362.52 -634.52,1314.32l0 -39.47c148.99,-158.02 278.05,-434.63 306.49,-726.8 38.78,-398.66 -64.91,-688.31 76.74,-1063.59 240.36,-636.87 914.41,-711.29 1364.4,-890.27 579.92,-230.73 1088.41,-548.31 1590.89,-875.98zm0 1553.17l0 322.62c-92.96,70.86 -184.09,128.38 -261.62,170.05 -242.87,130.56 -1342.21,424.98 -1653.69,266.83 153.76,-82.68 842.57,-83.77 1519.48,-467.99 119.22,-67.67 259.35,-171.38 395.83,-291.5zm0 731.12l0 309.82c-292.55,329.59 -942.17,364.96 -1359.71,364.94 -337.12,0 -251.12,-39.01 -284.04,-79.98 473.47,-50.61 670.8,-36.79 1101.45,-199.09 158.48,-59.7 299.69,-135.65 408.49,-230.03 50.61,-43.94 94.17,-105.41 133.81,-165.65zm-3338.51 1916.68l0 -175.02 1319.73 41.3c-233.96,76.93 -773.02,138.99 -1034.61,141.28 -102.01,0.89 -195.41,-1.18 -285.11,-7.56zm0 -1171.07l0 -97.46c30,8.49 60.7,19.76 92.11,34.21 -18.8,22.34 -52.01,42.94 -92.11,63.25zm2537.05 136.17c-441.52,26.76 -528.69,36.17 -955.77,-28.8 103.33,245.26 512.07,246.9 740.92,171.82 42.78,-14 69.2,-20.65 108.12,-42.65l106.72 -100.38zm-800.51 408.65c-91.36,-85.22 -113.44,-8.91 -280.93,-81.3 -100.76,-43.55 -158.37,-92.75 -265.45,-128.81 76.67,233.45 369.57,372.77 546.38,210.11zm-626.91 129.98l-142.57 -176.73c-63.66,-67.3 -85.14,-102.97 -156.05,-130.67 35.81,184.69 81.56,349.24 298.62,307.4z"/>
   </clipPath>
 </defs>
 <g id="Layer_x0020_1">
  <metadata id="CorelCorpID_0Corel-Layer"/>
  <path class="fil0" d="M3338.51 0l0 289c-199.71,126.52 -379.17,243.09 -459.38,291.9 -431.79,262.72 -819.16,465.15 -1297.78,680.1 -716.37,321.76 -955.52,270.46 -946.83,1020.8 5.76,498.7 -164.44,1362.52 -634.52,1314.32l0 -39.47c148.99,-158.02 278.05,-434.63 306.49,-726.8 38.78,-398.66 -64.91,-688.31 76.74,-1063.59 240.36,-636.87 914.41,-711.29 1364.4,-890.27 579.92,-230.73 1088.41,-548.31 1590.89,-875.98zm0 1553.17l0 322.62c-92.96,70.86 -184.09,128.38 -261.62,170.05 -242.87,130.56 -1342.21,424.98 -1653.69,266.83 153.76,-82.68 842.57,-83.77 1519.48,-467.99 119.22,-67.67 259.35,-171.38 395.83,-291.5zm0 731.12l0 309.82c-292.55,329.59 -942.17,364.96 -1359.71,364.94 -337.12,0 -251.12,-39.01 -284.04,-79.98 473.47,-50.61 670.8,-36.79 1101.45,-199.09 158.48,-59.7 299.69,-135.65 408.49,-230.03 50.61,-43.94 94.17,-105.41 133.81,-165.65zm-3338.51 1916.68l0 -175.02 1319.73 41.3c-233.96,76.93 -773.02,138.99 -1034.61,141.28 -102.01,0.89 -195.41,-1.18 -285.11,-7.56zm0 -1171.07l0 -97.46c30,8.49 60.7,19.76 92.11,34.21 -18.8,22.34 -52.01,42.94 -92.11,63.25zm2537.05 136.17c-441.52,26.76 -528.69,36.17 -955.77,-28.8 103.33,245.26 512.07,246.9 740.92,171.82 42.78,-14 69.2,-20.65 108.12,-42.65l106.72 -100.38zm-800.51 408.65c-91.36,-85.22 -113.44,-8.91 -280.93,-81.3 -100.76,-43.55 -158.37,-92.75 -265.45,-128.81 76.67,233.45 369.57,372.77 546.38,210.11zm-626.91 129.98l-142.57 -176.73c-63.66,-67.3 -85.14,-102.97 -156.05,-130.67 35.81,184.69 81.56,349.24 298.62,307.4z"/>
  <g style="clip-path:url(#id0)">
   <g id="_2607163698832">
    <path id="1" class="fil1" d="M-1371.26 3821.3c135.93,-29.95 227.21,-140.34 378.65,-188.87 268.7,-86.1 264.7,51.04 418.68,-161.68 91.82,-126.93 170.77,-202.59 286.9,-293.41 108.79,-85 318.59,-138.74 379.14,-210.69 -392.83,-180.73 -676.23,131.51 -835.86,268.64 -230.57,198.15 -608.76,146.33 -627.51,586.01zm1336.41 -230.18c496.6,95.69 675.27,-798.47 669.38,-1309.33 -8.68,-750.33 230.46,-699.03 946.83,-1020.79 478.62,-214.94 865.98,-417.38 1297.78,-680.1 210.48,-128.08 1103.99,-722.6 1254.89,-739.5 -40.89,361.17 -390.58,530.05 -464.63,764.81 512.03,-93.8 937.39,-760.7 885.14,-1417.6 -101.98,37.52 -510.07,352.99 -662.54,450.72 -692.71,443.81 -1351.82,921.32 -2144.36,1236.65 -449.99,178.99 -1124.04,253.4 -1364.4,890.28 -141.64,375.28 -37.96,664.94 -76.74,1063.58 -30.62,314.75 -178.02,611.46 -341.33,761.28zm1458.05 -1278.46c311.48,158.15 1410.82,-136.26 1653.69,-266.82 328.46,-176.56 901.08,-637.16 822.52,-1194.8 -117.17,324.8 -620.26,802.65 -956.73,993.63 -676.91,384.22 -1365.72,385.31 -1519.48,467.99zm271.56 566.41c32.92,40.97 -53.08,79.99 284.03,79.99 572.51,0.03 1581.5,-66.32 1507.83,-866.64 -82.24,52.24 -162.41,253.77 -281.93,357.53 -108.8,94.39 -250.01,170.34 -408.49,230.04 -430.65,162.3 -627.98,148.48 -1101.45,199.09zm842.28 287c-441.52,26.76 -528.69,36.18 -955.77,-28.78 103.32,245.26 512.07,246.9 740.93,171.81 42.78,-13.99 69.19,-20.65 108.12,-42.64l106.72 -100.39zm-800.51 408.66c-91.35,-85.23 -113.44,-8.91 -280.93,-81.3 -100.76,-43.55 -158.37,-92.75 -265.45,-128.81 76.67,233.45 369.57,372.77 546.38,210.11zm-626.9 129.97l-142.58 -176.73c-63.65,-67.29 -85.13,-102.96 -156.04,-130.67 35.81,184.69 81.56,349.24 298.62,307.4zm210.09 362.55l-2046.99 -64.07 195.25 96.75c282.9,87.47 511.4,111.25 817.13,108.6 261.59,-2.29 800.65,-64.35 1034.61,-141.28z"/>
   </g>
  </g>
  <path class="fil2" d="M3338.51 0l0 289c-199.71,126.52 -379.17,243.09 -459.38,291.9 -431.79,262.72 -819.16,465.15 -1297.78,680.1 -716.37,321.76 -955.52,270.46 -946.83,1020.8 5.76,498.7 -164.44,1362.52 -634.52,1314.32l0 -39.47c148.99,-158.02 278.05,-434.63 306.49,-726.8 38.78,-398.66 -64.91,-688.31 76.74,-1063.59 240.36,-636.87 914.41,-711.29 1364.4,-890.27 579.92,-230.73 1088.41,-548.31 1590.89,-875.98zm0 1553.17l0 322.62c-92.96,70.86 -184.09,128.38 -261.62,170.05 -242.87,130.56 -1342.21,424.98 -1653.69,266.83 153.76,-82.68 842.57,-83.77 1519.48,-467.99 119.22,-67.67 259.35,-171.38 395.83,-291.5zm0 731.12l0 309.82c-292.55,329.59 -942.17,364.96 -1359.71,364.94 -337.12,0 -251.12,-39.01 -284.04,-79.98 473.47,-50.61 670.8,-36.79 1101.45,-199.09 158.48,-59.7 299.69,-135.65 408.49,-230.03 50.61,-43.94 94.17,-105.41 133.81,-165.65zm-3338.51 1916.68l0 -175.02 1319.73 41.3c-233.96,76.93 -773.02,138.99 -1034.61,141.28 -102.01,0.89 -195.41,-1.18 -285.11,-7.56zm0 -1171.07l0 -97.46c30,8.49 60.7,19.76 92.11,34.21 -18.8,22.34 -52.01,42.94 -92.11,63.25zm2537.05 136.17c-441.52,26.76 -528.69,36.17 -955.77,-28.8 103.33,245.26 512.07,246.9 740.92,171.82 42.78,-14 69.2,-20.65 108.12,-42.65l106.72 -100.38zm-800.51 408.65c-91.36,-85.22 -113.44,-8.91 -280.93,-81.3 -100.76,-43.55 -158.37,-92.75 -265.45,-128.81 76.67,233.45 369.57,372.77 546.38,210.11zm-626.91 129.98l-142.57 -176.73c-63.66,-67.3 -85.14,-102.97 -156.05,-130.67 35.81,184.69 81.56,349.24 298.62,307.4z"/>
 </g>
</svg>
