<?xml version="1.0" encoding="UTF-8"?>
<!DOCTYPE svg PUBLIC "-//W3C//DTD SVG 1.1//EN" "http://www.w3.org/Graphics/SVG/1.1/DTD/svg11.dtd">
<!-- Creator: CorelDRAW 2020 (64-Bit) -->
<svg xmlns="http://www.w3.org/2000/svg" xml:space="preserve" width="50.305mm" height="51.4615mm" version="1.1" style="shape-rendering:geometricPrecision; text-rendering:geometricPrecision; image-rendering:optimizeQuality; fill-rule:evenodd; clip-rule:evenodd"
viewBox="0 0 2161.11 2210.8"
 xmlns:xlink="http://www.w3.org/1999/xlink"
 xmlns:xodm="http://www.corel.com/coreldraw/odm/2003">
 <defs>
  <style type="text/css">
   <![CDATA[
    .fil1 {fill:#D7AD77}
    .fil0 {fill:#046B5D}
    .fil2 {fill:#D7AD77;fill-rule:nonzero}
   ]]>
  </style>
 </defs>
 <g id="Layer_x0020_1">
  <metadata id="CorelCorpID_0Corel-Layer"/>
  <rect class="fil0" x="0" y="-0" width="2161.11" height="2210.8"/>
  <g id="_2607167800176">
   <path class="fil1" d="M1767.48 707.08l-0.18 1141.55c-211.56,2.3 -1199.56,13.66 -1244.87,-4.76l-5.55 -140.62 -51.75 -13.83 -3.87 221.55 1360 -0.5c6.99,-442.11 0.94,-904.86 0.46,-1352.17 -63.8,64.51 -54.25,86.41 -54.23,148.78z"/>
   <path class="fil1" d="M460.53 1251.93l57.67 -8.51 0.88 -737.17c147.97,-8.7 792.96,9.04 870.71,-8.19l68.75 -31.81c17.88,-16.69 5.86,-2.75 18.25,-21.99l-1016.69 0.08 0.42 807.58z"/>
   <path class="fil2" d="M193.75 1544.72c37.62,-8.15 62.89,-38.19 104.8,-51.39 74.37,-23.43 73.26,13.89 115.88,-43.99 25.41,-34.54 47.26,-55.12 79.4,-79.83 30.12,-23.13 88.18,-37.75 104.94,-57.33 -108.73,-49.17 -187.16,35.78 -231.34,73.1 -63.81,53.92 -168.49,39.82 -173.68,159.45zm369.89 -62.63c137.45,26.04 186.9,-217.25 185.27,-356.26 -2.41,-204.16 63.79,-190.2 262.06,-277.75 132.47,-58.49 239.68,-113.57 359.19,-185.05 58.25,-34.85 305.55,-196.61 347.32,-201.21 -11.32,98.27 -108.11,144.22 -128.6,208.09 141.72,-25.52 259.45,-206.98 244.98,-385.71 -28.22,10.21 -141.17,96.05 -183.38,122.63 -191.72,120.76 -374.15,250.69 -593.5,336.48 -124.55,48.7 -311.11,68.95 -377.63,242.24 -39.21,102.11 -10.51,180.92 -21.24,289.39 -8.48,85.64 -49.28,166.37 -94.47,207.14zm403.55 -347.86c86.21,43.03 390.49,-37.07 457.7,-72.6 90.91,-48.04 249.4,-173.37 227.65,-325.1 -32.43,88.38 -171.67,218.4 -264.8,270.36 -187.35,104.54 -378,104.84 -420.56,127.33zm75.16 154.12c9.11,11.15 -14.69,21.76 78.62,21.76 158.45,0.01 437.72,-18.04 417.33,-235.8 -22.76,14.22 -44.95,69.05 -78.03,97.28 -30.12,25.68 -69.2,46.35 -113.06,62.59 -119.19,44.16 -173.81,40.4 -304.85,54.17zm233.12 78.09c-122.2,7.28 -146.33,9.84 -264.53,-7.84 28.6,66.73 141.73,67.18 205.07,46.75 11.84,-3.81 19.15,-5.62 29.93,-11.6l29.54 -27.31zm-221.56 111.19c-25.29,-23.19 -31.4,-2.42 -77.75,-22.12 -27.89,-11.85 -43.83,-25.23 -73.47,-35.05 21.22,63.52 102.29,101.42 151.22,57.17zm-173.51 35.36l-39.46 -48.09c-17.62,-18.31 -23.56,-28.02 -43.19,-35.55 9.91,50.25 22.57,95.02 82.65,83.64zm58.15 98.65l-566.56 -17.43 54.04 26.33c78.29,23.8 141.54,30.27 226.16,29.55 72.4,-0.62 221.6,-17.51 286.36,-38.45z"/>
  </g>
 </g>
</svg>
